<?xml version="1.0" ?><!DOCTYPE svg  PUBLIC '-//W3C//DTD SVG 1.1//EN'  'http://www.w3.org/Graphics/SVG/1.1/DTD/svg11.dtd'><svg id="Layer_1" style="enable-background:new 0 0 64 64;" version="1.1" viewBox="0 0 64 64" xml:space="preserve" xmlns="http://www.w3.org/2000/svg" xmlns:xlink="http://www.w3.org/1999/xlink"><style type="text/css">
	.st0{fill:#134563;}
</style><g><g id="Icon-Undo" transform="translate(82.000000, 432.000000)"><path class="st0" d="M-50.1-380.1C-61-380.1-70-389-70-400c0-11,8.9-19.9,19.9-19.9c8.3,0,15.4,5.2,18.3,13.3     l-2.7,1c-2.5-7-8.5-11.4-15.6-11.4c-9.4,0-17,7.6-17,17s7.6,17,17,17c6.6,0,12.7-3.9,15.5-9.9l2.6,1.2     C-35.2-384.6-42.3-380.1-50.1-380.1" id="Fill-83"/><polyline class="st0" id="Fill-84" points="-42.4,-404.6 -42.4,-407.7 -33.1,-407.7 -33.1,-416.9 -30,-416.9 -30,-404.6      -42.4,-404.6    "/></g></g></svg>