<svg xmlns="http://www.w3.org/2000/svg" width="146" height="146" viewBox="0 0 146 146"><title>001-business</title><rect x="0.5" y="0.5" width="145" height="145" fill="none"/><polygon points="73.36 124 80.96 124 80.96 137.6 43.36 137.6 43.36 124 48.16 124 73.36 124" fill="#a8cbeb"/><path d="M98.81,84.26a0.46,0.46,0,0,1,0,.62,11.27,11.27,0,0,1-8.3,4.73,11,11,0,0,1-10.33-6.45c0.42-1.53.84-3.07,1.26-4.62h11.6Z" fill="#fff"/><path d="M103.78,68.94v0.4A12,12,0,0,1,100.69,76a11.21,11.21,0,0,1-1.45,1.3,6.2,6.2,0,0,1-3.77,1.23h-14c0.88-3.22,1.74-6.44,2.66-9.6h19.62Z" fill="#fff"/><path d="M84.15,68.94c-0.92,3.16-1.78,6.38-2.66,9.6-0.42,1.54-.83,3.09-1.26,4.62-0.62,2.18-1.25,4.35-1.92,6.48A8.15,8.15,0,0,0,78.44,95a25.71,25.71,0,0,1,1.45,9.51A24.35,24.35,0,0,1,74,120l-0.66,4H48.16v-4L41.83,84.62a9.57,9.57,0,0,1,2.6-8.42l6.72-6.86v-0.4H67.88l0.72,0.31L73.45,58a4.58,4.58,0,0,1,2.19-2.36,7.41,7.41,0,0,1,10.43,4.94,4.72,4.72,0,0,1-.14,2.6C85.31,65.06,84.72,67,84.15,68.94Z" fill="#fff"/><path d="M82.29,55.74a7.5,7.5,0,0,0-6.65-.1A4.58,4.58,0,0,0,73.45,58L68.6,69.25l-0.72-.31H40.79a0.79,0.79,0,0,1-.77-0.8v-24h72.8v24a0.79,0.79,0,0,1-.77.8H84.15c0.57-1.94,1.16-3.87,1.78-5.75a4.72,4.72,0,0,0,.14-2.6A7.51,7.51,0,0,0,82.29,55.74Z" fill="#ed9180"/><rect x="40.02" y="32.14" width="72.8" height="12" fill="#fff"/><path d="M112.82,22.54v9.6H40v-9.6a0.79,0.79,0,0,1,.77-0.8h71.26A0.79,0.79,0,0,1,112.82,22.54Z" fill="#ed9180"/><path d="M51.15,69.34L44.43,76.2a9.57,9.57,0,0,0-2.6,8.42L48.16,120v4" fill="none" stroke="#515f76" stroke-miterlimit="10" stroke-width="2.4"/><path d="M58.49,92.74L68.6,69.25,73.45,58a4.58,4.58,0,0,1,2.19-2.36,7.41,7.41,0,0,1,10.43,4.94,4.72,4.72,0,0,1-.14,2.6c-0.62,1.88-1.22,3.81-1.78,5.75-0.92,3.16-1.78,6.38-2.66,9.6-0.42,1.54-.83,3.09-1.26,4.62-0.62,2.18-1.25,4.35-1.92,6.48A8.15,8.15,0,0,0,78.44,95a25.71,25.71,0,0,1,1.45,9.51A24.35,24.35,0,0,1,74,120l-0.66,4" fill="none" stroke="#515f76" stroke-linecap="round" stroke-miterlimit="10" stroke-width="2.4"/><path d="M81.22,78.54H95.47a6.2,6.2,0,0,0,3.77-1.23,11.21,11.21,0,0,0,1.45-1.3,12,12,0,0,0,3.09-6.66" fill="none" stroke="#515f76" stroke-miterlimit="10" stroke-width="2.4"/><path d="M80.12,82.94a1.39,1.39,0,0,0,.11.22A11,11,0,0,0,90.56,89.6a11.27,11.27,0,0,0,8.3-4.73,0.46,0.46,0,0,0,0-.62l-5.72-5.72" fill="none" stroke="#515f76" stroke-miterlimit="10" stroke-width="2.4"/><path d="M112.82,44.14v24a0.79,0.79,0,0,1-.77.8H84.15" fill="none" stroke="#515f76" stroke-miterlimit="10" stroke-width="2.4"/><line x1="65.22" y1="51.14" x2="71.62" y2="51.14" fill="none" stroke="#515f76" stroke-linecap="round" stroke-miterlimit="10" stroke-width="2.4"/><line x1="81.22" y1="51.14" x2="86.82" y2="51.14" fill="none" stroke="#515f76" stroke-linecap="round" stroke-miterlimit="10" stroke-width="2.4"/><line x1="95.62" y1="51.14" x2="102.02" y2="51.14" fill="none" stroke="#515f76" stroke-linecap="round" stroke-miterlimit="10" stroke-width="2.4"/><line x1="50.82" y1="51.14" x2="57.22" y2="51.14" fill="none" stroke="#515f76" stroke-linecap="round" stroke-miterlimit="10" stroke-width="2.4"/><line x1="50.82" y1="59.34" x2="64.42" y2="59.34" fill="none" stroke="#515f76" stroke-linecap="round" stroke-miterlimit="10" stroke-width="2.4"/><path d="M44,68.53V45H40V68.53C40,69,41.17,69,41.59,69h4C45.17,69,44,69,44,68.53Z" fill="#eeb8a9"/><path d="M46.78,26.5l66.44-1.16v-2c0-.44.06-0.4-0.37-0.4H41.59c-0.42,0-1.17,0-1.17.4v8.4h4V28.9A2.4,2.4,0,0,1,46.78,26.5Z" fill="#eeb8a9"/><path d="M40,32.14v-9.6a0.79,0.79,0,0,1,.77-0.8h71.26a0.79,0.79,0,0,1,.77.8v9.6" fill="none" stroke="#515f76" stroke-miterlimit="10" stroke-width="2.4"/><path d="M67.88,68.94H40.79a0.79,0.79,0,0,1-.77-0.8v-24" fill="none" stroke="#515f76" stroke-miterlimit="10" stroke-width="2.4"/><line x1="40.02" y1="44.14" x2="40.02" y2="32.14" fill="none" stroke="#515f76" stroke-miterlimit="10" stroke-width="2.4"/><line x1="112.82" y1="32.14" x2="112.82" y2="44.14" fill="none" stroke="#515f76" stroke-miterlimit="10" stroke-width="2.4"/><path d="M49.11,129.23l32.11-1.49v-4H43.62v13.6h3.2v-5.71A2.4,2.4,0,0,1,49.11,129.23Z" fill="#d2e1ef"/><path d="M43.36,137.6V124.8a0.8,0.8,0,0,1,.8-0.8h36a0.8,0.8,0,0,1,.8.8v12.8" fill="none" stroke="#515f76" stroke-miterlimit="10" stroke-width="2.4"/><circle cx="35.76" cy="13.07" r="2" fill="none" stroke="#b8b9ba" stroke-linecap="round" stroke-miterlimit="10" stroke-width="1.6"/><circle cx="28.36" cy="24.93" r="1.6" fill="#b8b9ba"/><line x1="18.69" y1="9.6" x2="21.89" y2="12.8" fill="none" stroke="#a8cbeb" stroke-linecap="round" stroke-miterlimit="10" stroke-width="1.6"/><line x1="21.89" y1="9.6" x2="18.69" y2="12.8" fill="none" stroke="#a8cbeb" stroke-linecap="round" stroke-miterlimit="10" stroke-width="1.6"/><line x1="124" y1="71" x2="124" y2="77" fill="none" stroke="#b8b9ba" stroke-linecap="round" stroke-miterlimit="10" stroke-width="2"/><line x1="127" y1="74" x2="121" y2="74" fill="none" stroke="#b8b9ba" stroke-linecap="round" stroke-miterlimit="10" stroke-width="2"/><circle cx="125.95" cy="59.99" r="1.6" fill="#b8b9ba"/><path d="M28.31,78.15l2.33-1.22a0.08,0.08,0,0,1,.12.08l-0.44,2.59,2,1.95-2.76.4-1.24,2.5L27.08,82l-2.6-.38a0.08,0.08,0,0,1,0-.14l1.88-1.84-0.47-2.75Z" fill="#b8b9ba"/><circle cx="25.16" cy="67.44" r="1.6" fill="#b8b9ba"/></svg>